<svg width="176" height="132" viewBox="0 0 176 132" fill="none" xmlns="http://www.w3.org/2000/svg">
<path d="M29.4876 23.521L38.2764 20.8843L57.6118 13.8533L76.9472 20.8843L81.3416 13.8533L93.6459 7.70113L109.466 18.2477H122.649L135.832 31.4309L154.289 34.9464L157.804 56.0395L169.23 72.7383L162.199 96.468L156.046 101.741L143.742 95.5891L141.105 125.471L137.59 111.409L131.438 103.499L40.0342 105.257L36.5187 103.499V95.5891L35.6398 87.6792H28.6088L18.9411 86.8003L14.5467 82.4059V70.9805L7.51562 57.7973L13.6678 43.7352L16.3044 41.0986H18.9411L21.5777 40.2197L23.3355 34.0675C23.9214 33.1887 25.0932 31.2551 25.0932 30.552C25.0932 29.8489 28.0228 25.5717 29.4876 23.521Z" fill="#FF6700" stroke="#FF6700" stroke-width="8.7888"/>
<path d="M45.5957 70.4238C49.7695 69.7938 56.8976 70.4332 60.1058 75.8933M61.718 83.9665C61.9248 80.5189 61.2762 77.8853 60.1058 75.8933M60.1058 75.8933C62.2554 75.6824 66.4902 73.5193 66.2322 66.5545M106.86 83.9665C112.342 86.3311 123.305 87.7069 123.305 74.2932M115.244 63.6524C117.394 69.349 124.788 79.4523 137.17 74.2932M86.2239 32.3752C90.4156 32.4827 98.7992 29.7957 98.7992 18.1876" stroke="black" stroke-width="6.44891" stroke-linecap="round"/>
<path d="M33.0363 90.8614C22.8256 94.0858 4.01623 94.1503 10.4651 68.6126C4.23119 61.4113 -3.01309 45.0096 17.8814 37.013M26.9099 47.3312C20.6759 38.4102 14.8504 20.0523 41.4199 17.9887M41.4199 23.1478C43.677 15.5166 52.9635 2.70473 72.0523 12.5071M72.0523 27.0171C72.4593 24.7042 73.1391 22.1461 74.125 19.6009M113.325 12.5071C90.6891 -4.57682 78.8664 7.36163 74.125 19.6009M74.125 19.6009C69.9947 19.6009 61.2181 21.3421 59.1544 28.3069M109.456 19.6009C116.012 14.2268 130.866 8.44427 137.831 28.3069C147.827 27.1246 166.529 30.822 161.37 55.0699M154.598 57.0046C164.379 58.7243 180.587 68.4192 167.174 93.4409M161.37 87.9594C165.347 94.1933 168.786 106.597 150.729 106.339M157.823 82.8002C154.276 82.6928 147.376 84.8639 148.149 94.4083C149.117 106.339 152.986 127.943 140.088 128.265C127.19 128.588 144.28 107.629 122.676 108.273C105.393 108.789 61.3041 108.488 41.4199 108.273C35.5084 109.348 25.878 106.532 34.6486 86.6696" stroke="black" stroke-width="6.44891" stroke-linecap="round"/>
<path d="M60.6042 48.7685L60.5911 48.7718L60.3274 52.5185L62.5498 51.9718L60.6042 48.7685ZM64.4402 55.0073L63.4447 53.3415L60.2228 54.1342L60.0479 56.0878L58.1148 56.5634L59.0833 47.0647L61.2005 46.5438L66.426 54.5187L64.4402 55.0073Z" fill="white"/>
<path d="M82.2858 86.9153L84.1276 86.362L85.8536 92.1078C86.1679 93.1541 86.0986 94.0375 85.6457 94.758C85.1902 95.4699 84.3961 95.9959 83.2634 96.3362C82.2171 96.6505 81.3117 96.6491 80.5471 96.332C79.7912 96.0123 79.2574 95.3336 78.9457 94.296L77.1886 88.4464L79.0174 87.8971L80.7238 93.578C80.8849 94.1141 81.1462 94.4976 81.5077 94.7283C81.8693 94.9591 82.2965 95.0005 82.7894 94.8524C83.9394 94.507 84.3469 93.7765 84.0118 92.6611L82.2858 86.9153Z" fill="white"/>
<path d="M75.3046 54.1404C75.738 54.1404 76.0766 54.0185 76.3204 53.7748C76.5641 53.531 76.686 53.224 76.686 52.8538C76.686 52.4566 76.5641 52.1677 76.3204 51.9871C76.0856 51.8065 75.7561 51.7163 75.3317 51.7163H72.9211V54.1404H75.3046ZM72.9211 48.2358V50.1859H75.2911C76.0495 50.1859 76.4287 49.8609 76.4287 49.2109C76.4287 48.8678 76.3294 48.6195 76.1308 48.466C75.9412 48.3125 75.6252 48.2358 75.1828 48.2358H72.9211ZM71.1064 55.6707V46.6784H75.5349C76.4197 46.6784 77.0923 46.8996 77.5527 47.342C78.0132 47.7753 78.2434 48.3712 78.2434 49.1296C78.2434 49.5178 78.1396 49.8654 77.9319 50.1724C77.7243 50.4703 77.4625 50.6825 77.1465 50.8089C77.3361 50.8811 77.5121 50.9759 77.6746 51.0933C77.8462 51.2016 77.9906 51.3461 78.108 51.5267C78.2344 51.6982 78.3337 51.9059 78.4059 52.1496C78.4782 52.3844 78.5143 52.6642 78.5143 52.9893C78.5143 53.8109 78.2389 54.4654 77.6882 54.953C77.1374 55.4315 76.2933 55.6707 75.1557 55.6707H71.1064Z" fill="white"/>
<path d="M97.3885 89.8467C97.3806 89.3841 97.2418 89.0287 96.9721 88.7804C96.7023 88.5321 96.2839 88.385 95.717 88.3391C95.1861 88.2961 94.7783 88.3537 94.4938 88.5118C94.2092 88.67 94.0531 88.92 94.0255 89.262C94.0021 89.55 94.0871 89.7878 94.2802 89.9755C94.4823 90.164 94.8303 90.3416 95.324 90.5084C95.8268 90.6759 96.3025 90.8412 96.7513 91.0044C97.2098 91.1592 97.5993 91.3266 97.9199 91.5066C98.1106 91.6126 98.2867 91.731 98.4482 91.8618C98.6097 91.9927 98.7465 92.1487 98.8587 92.3299C98.9708 92.511 99.0534 92.7215 99.1065 92.9613C99.1595 93.2011 99.1733 93.4785 99.1478 93.7935C99.1077 94.2884 98.9831 94.7086 98.774 95.054C98.5746 95.3911 98.3035 95.6636 97.9606 95.8713C97.6267 96.0798 97.2349 96.2202 96.7852 96.2925C96.3438 96.3745 95.8621 96.3944 95.3401 96.3521C94.7822 96.307 94.2788 96.2028 93.8301 96.0397C93.3806 95.8855 92.9996 95.669 92.687 95.3901C92.3744 95.1112 92.1386 94.7796 91.9795 94.3953C91.8211 94.002 91.7578 93.5531 91.7896 93.0484L93.5984 93.1948C93.5793 93.6552 93.7342 94.0346 94.0633 94.333C94.4022 94.6231 94.8731 94.7926 95.476 94.8414C96.0339 94.8865 96.4701 94.8132 96.7846 94.6212C97.1088 94.421 97.2872 94.1184 97.32 93.7135C97.331 93.5785 97.3183 93.4552 97.282 93.3435C97.2548 93.2326 97.1908 93.1278 97.0901 93.0291C96.9991 92.9221 96.8666 92.8253 96.6924 92.7387C96.519 92.6432 96.2953 92.5526 96.0215 92.467C95.4737 92.2959 95.01 92.1497 94.6303 92.0283C94.2604 91.8988 93.9238 91.7492 93.6204 91.5798C93.152 91.3244 92.8011 91.0152 92.5678 90.6521C92.3442 90.2808 92.2554 89.8116 92.3013 89.2447C92.3341 88.8397 92.4314 88.4762 92.5934 88.1542C92.756 87.8232 92.9822 87.5471 93.2718 87.326C93.5705 87.1056 93.9277 86.9443 94.3436 86.8421C94.7685 86.7406 95.2554 86.7121 95.8044 86.7565C96.3713 86.8024 96.8694 86.9152 97.2987 87.0949C97.728 87.2745 98.0806 87.5069 98.3564 87.7919C98.6413 88.0776 98.8501 88.407 98.983 88.7801C99.1248 89.1539 99.1872 89.5575 99.1703 89.9909L97.3885 89.8467Z" fill="white"/>
<path d="M87.8954 53.7321C88.2002 53.8688 88.5126 53.9445 88.8325 53.9593C89.156 53.9658 89.4665 53.9022 89.764 53.7684C90.0734 53.6301 90.3651 53.4097 90.6393 53.1071C90.9135 52.8046 91.1595 52.4103 91.3775 51.9243C91.8133 50.9521 91.9544 50.1298 91.8008 49.4574C91.6471 48.785 91.2078 48.2862 90.4829 47.9612C89.7579 47.6361 89.0892 47.638 88.4766 47.967C87.8641 48.2959 87.3399 48.9464 86.9041 49.9186C86.4682 50.8907 86.3423 51.6901 86.5263 52.3168C86.7223 52.939 87.1787 53.4107 87.8954 53.7321ZM87.2361 55.2026C85.9674 54.6338 85.1573 53.8254 84.806 52.7773C84.4629 51.733 84.6035 50.5147 85.2277 49.1224C85.538 48.4304 85.9034 47.8472 86.3239 47.3728C86.7443 46.8984 87.2084 46.5474 87.7161 46.3199C88.2275 46.0842 88.7705 45.9764 89.3452 45.9966C89.9236 46.0086 90.53 46.1568 91.1644 46.4412C91.7905 46.7219 92.3004 47.0742 92.6941 47.4981C93.0998 47.9174 93.3805 48.3946 93.5365 48.9295C93.6924 49.4645 93.7313 50.0509 93.6531 50.6886C93.5786 51.3182 93.3844 51.9831 93.0704 52.6833C92.4351 54.1003 91.619 55.0157 90.6221 55.4296C89.6334 55.8471 88.5048 55.7715 87.2361 55.2026Z" fill="white"/>
<path d="M103.026 46.4963L104.814 45.7873L107.026 51.364C107.428 52.3795 107.435 53.2655 107.046 54.0222C106.653 54.7705 105.907 55.3627 104.807 55.7988C103.792 56.2016 102.89 56.2778 102.101 56.0274C101.32 55.7737 100.73 55.1433 100.331 54.1362L98.0787 48.4587L99.8537 47.7547L102.041 53.2685C102.247 53.7888 102.54 54.1484 102.92 54.3473C103.3 54.5463 103.73 54.5508 104.208 54.3611C105.324 53.9184 105.668 53.1557 105.238 52.0731L103.026 46.4963Z" fill="white"/>
<path d="M114.906 55.3218L116.16 48.0071L113.491 47.5494L113.756 46.0011L120.964 47.2368L120.698 48.7852L118.016 48.3252L116.761 55.6399L114.906 55.3218Z" fill="white"/>
</svg>
