<svg width="169" height="40" viewBox="0 0 169 40" fill="none" xmlns="http://www.w3.org/2000/svg">
<g clip-path="url(#clip0_644_1883)">
<path d="M130.837 7.44043C129.81 7.44043 128.976 8.27299 128.976 9.30043V30.7004C128.976 31.728 129.81 32.5604 130.837 32.5604H167.116C168.144 32.5604 168.976 31.7279 168.976 30.7004V9.30043C168.976 8.27287 168.144 7.44043 167.116 7.44043H130.837ZM150.035 14.5117C150.062 14.511 150.089 14.5117 150.116 14.5117C151.863 14.5117 153.279 15.9272 153.279 17.6742C153.279 19.4212 151.863 20.838 150.116 20.838C148.369 20.838 146.954 19.4212 146.954 17.6742C146.954 15.9545 148.326 14.555 150.035 14.5117ZM140.052 14.6504C140.679 14.6504 141.254 14.8656 141.734 15.2854L141.15 16.0504C140.859 15.7244 140.584 15.5867 140.25 15.5867C139.769 15.5867 139.419 15.8601 139.419 16.2204C139.419 16.5295 139.615 16.6939 140.285 16.9417C141.554 17.406 141.93 17.8176 141.93 18.7267C141.93 19.8345 141.117 20.6054 139.957 20.6054C139.108 20.6054 138.49 20.2702 137.976 19.5154L138.697 18.8217C138.954 19.3187 139.383 19.5842 139.915 19.5842C140.413 19.5842 140.781 19.2415 140.781 18.778C140.781 18.5376 140.67 18.3312 140.447 18.1854C140.335 18.1165 140.113 18.0133 139.676 17.8592C138.628 17.4818 138.269 17.0788 138.269 16.2904C138.269 15.354 139.04 14.6504 140.052 14.6504H140.052ZM145.301 14.6504C145.781 14.6504 146.185 14.753 146.675 15.0004V16.3079C146.211 15.856 145.807 15.6667 145.275 15.6667C144.228 15.6667 143.406 16.5305 143.406 17.6242C143.406 18.778 144.204 19.5892 145.327 19.5892C145.833 19.5892 146.229 19.41 146.675 18.9654V20.273C146.167 20.5109 145.755 20.6054 145.275 20.6054C143.576 20.6054 142.256 19.3062 142.256 17.6317C142.256 15.9752 143.611 14.6504 145.301 14.6504H145.301ZM131.186 14.7442H132.836C134.659 14.7442 135.93 15.9105 135.93 17.5854C135.93 18.4206 135.541 19.2283 134.884 19.7642C134.33 20.2165 133.7 20.4192 132.827 20.4192H131.186V14.7442V14.7442ZM136.441 14.7442H137.511V20.4192H136.441V14.7442ZM152.814 14.7442H154.03L155.552 18.583L157.095 14.7441H158.302L155.836 20.6054H155.236L152.814 14.7442V14.7442ZM158.767 14.7442H161.93V15.7054H159.881V16.9654H161.855V17.9267H159.881V19.4579H161.93V20.4192H158.767V14.7442ZM162.721 14.7442H164.379C165.668 14.7442 166.409 15.3567 166.409 16.4192C166.409 17.2881 165.945 17.8582 165.102 18.0279L166.907 20.4192H165.531L163.984 18.1391H163.837V20.4192H162.721V14.7442V14.7442ZM163.845 15.6379V17.3654H164.169C164.876 17.3654 165.251 17.0574 165.251 16.4842C165.251 15.9292 164.876 15.6379 164.186 15.6379H163.845V15.6379ZM132.31 15.7004V19.463H132.611C133.338 19.463 133.799 19.3255 134.152 19.0104C134.542 18.6688 134.775 18.123 134.775 17.5767C134.775 17.0317 134.542 16.5023 134.152 16.1604C133.781 15.8284 133.338 15.7004 132.611 15.7004H132.31ZM168.489 21.068C168.489 21.068 168.5 27.1628 168.475 30.3667C168.473 30.6471 168.37 31.091 168.051 31.4604C167.732 31.8299 167.236 32.0028 166.94 32.0017C166.644 32.0006 137.976 32.0017 137.976 32.0017C157.652 28.6074 168.489 21.068 168.489 21.068H168.489Z" fill="black"/>
</g>
<g clip-path="url(#clip1_644_1883)">
<path d="M42.8612 7.79984C41.8336 7.79984 41 8.63305 41 9.66109V31.0586C41 32.0865 41.8338 32.9198 42.8612 32.9198H79.1388C80.1664 32.9198 81 32.0866 81 31.0586V9.66105C81 8.63316 80.1663 7.7998 79.1388 7.7998H42.8612L42.8612 7.79984ZM54.1162 10.8236C56.3995 10.8236 58.4964 11.618 60.1425 12.9448C58.7576 14.184 57.7246 15.812 57.215 17.6574H58.0138C58.4842 16.135 59.3387 14.7797 60.465 13.7048C61.5913 14.7797 62.4458 16.135 62.9162 17.6574H63.7275C63.2108 15.8218 62.1764 14.2034 60.7925 12.9724C62.4417 11.6286 64.5469 10.8236 66.84 10.8236C72.1316 10.8236 76.4212 15.1136 76.4212 20.4061C76.4212 25.6985 72.1316 29.9886 66.84 29.9886C64.5088 29.9886 62.3712 29.1565 60.71 27.7723C62.196 26.4795 63.2915 24.7464 63.7925 22.7748H63.0112C62.5664 24.4296 61.671 25.9014 60.465 27.0524C59.259 25.9014 58.3648 24.4296 57.92 22.7748H57.1762C57.6801 24.7179 58.7613 26.4267 60.225 27.7074C58.5668 29.0744 56.4376 29.8961 54.1162 29.8961C48.8246 29.8961 44.535 25.6266 44.535 20.3598C44.535 15.093 48.8246 10.8236 54.1162 10.8236V10.8236ZM66.1212 17.5598C64.97 17.5598 63.85 18.5663 63.85 20.4561C63.85 21.7092 64.455 22.5361 65.645 22.5361C65.9815 22.5362 66.5175 22.3986 66.5175 22.3986L66.695 21.3036C66.695 21.3036 66.2058 21.5511 65.87 21.5511C65.1626 21.5511 64.8788 21.007 64.8788 20.4224C64.8788 19.2362 65.4874 18.5836 66.165 18.5836C66.6731 18.5836 67.0812 18.8711 67.0812 18.8711L67.2438 17.8061C67.2438 17.8061 66.6396 17.5598 66.1212 17.5598H66.1212ZM75.8 17.6524L74.7988 17.6548L74.5838 18.9724C74.5838 18.9724 74.2074 18.4611 73.6188 18.4611C72.7036 18.4611 71.9412 19.5483 71.9412 20.7986C71.9412 21.6057 72.347 22.3973 73.1788 22.3973C73.7771 22.3973 74.1088 21.9861 74.1088 21.9861L74.065 22.3373H75.0375L75.8 17.6524ZM47.1225 17.6661L46.325 22.3623H47.2862L47.8938 18.8211L47.9838 22.3623H48.6712L49.9538 18.8211L49.385 22.3623H50.4062L51.1938 17.6661H49.6138L48.63 20.5473L48.5788 17.6661H47.1225L47.1225 17.6661ZM57.165 17.9711C57.1433 17.9929 56.5838 21.2194 56.5838 21.6123C56.5838 22.1942 56.9099 22.454 57.3688 22.4498C57.6976 22.447 57.9522 22.3644 58.07 22.3298C58.0823 22.3265 58.1062 22.3198 58.1062 22.3198L58.23 21.4798C58.1627 21.4798 58.0636 21.5086 57.9762 21.5086C57.6336 21.5086 57.5957 21.3263 57.6175 21.1911L57.8938 19.4774H58.415L58.5412 18.5486H58.05L58.15 17.9711H57.165V17.9711ZM68.7838 18.4436C68.1128 18.4436 67.5988 18.6648 67.5988 18.6648L67.4562 19.5274C67.4562 19.5274 67.8808 19.3511 68.5225 19.3511C68.8868 19.3511 69.1537 19.3928 69.1537 19.6961C69.1537 19.8803 69.1212 19.9486 69.1212 19.9486C69.1212 19.9486 68.8332 19.9236 68.7 19.9236C67.8539 19.9236 66.965 20.2944 66.965 21.4098C66.965 22.2887 67.5486 22.4898 67.91 22.4898C68.6003 22.4898 68.898 22.0312 68.9138 22.0298L68.8812 22.4124H69.7425L70.1275 19.6524C70.1276 18.4812 69.1302 18.4436 68.7838 18.4436V18.4436ZM52.6275 18.4486C51.9541 18.4486 51.4375 18.6698 51.4375 18.6698L51.295 19.5324C51.295 19.5324 51.721 19.3561 52.365 19.3561C52.7307 19.3561 52.9988 19.3979 52.9988 19.7011C52.9988 19.8852 52.9662 19.9536 52.9662 19.9536C52.9662 19.9536 52.6773 19.9286 52.5438 19.9286C51.6944 19.9286 50.8025 20.2988 50.8025 21.4136C50.8025 22.292 51.3872 22.4936 51.75 22.4936C52.4428 22.4936 52.7416 22.035 52.7575 22.0336L52.725 22.4161H53.59L53.9762 19.6574C53.9762 18.4869 52.9752 18.4486 52.6275 18.4486V18.4486ZM55.6825 18.4486C54.9594 18.4486 54.225 18.7405 54.225 19.7374C54.225 20.8669 55.4488 20.7528 55.4488 21.2286C55.4488 21.5462 55.1072 21.5724 54.8438 21.5724C54.3878 21.5724 53.9777 21.4148 53.9762 21.4224L53.845 22.2848C53.8686 22.2922 54.1225 22.4061 54.9425 22.4061C55.1627 22.4061 56.4212 22.462 56.4212 21.1511C56.4212 19.9255 55.2562 20.1684 55.2562 19.6761C55.2562 19.431 55.4454 19.3536 55.7925 19.3536C55.9303 19.3536 56.4613 19.3974 56.4613 19.3974L56.5838 18.5261C56.5838 18.5262 56.2412 18.4486 55.6825 18.4486H55.6825ZM60.2025 18.4486C59.1977 18.4488 58.4538 19.5293 58.4538 20.7498C58.4538 22.1586 59.3858 22.4936 60.18 22.4936C60.913 22.4936 61.2362 22.3298 61.2362 22.3298L61.4112 21.3686C61.4112 21.3686 60.8536 21.6136 60.35 21.6136C59.277 21.6136 59.465 20.8148 59.465 20.8148H61.4962C61.4962 20.8148 61.6275 20.1693 61.6275 19.9061C61.6275 19.2493 61.2997 18.4486 60.2025 18.4486H60.2025ZM63.8413 18.4898C63.3886 18.4898 63.0525 19.0986 63.0525 19.0986L63.1425 18.5398H62.2025L61.5713 22.3974H62.61C62.9042 20.7501 62.9579 19.4125 63.66 19.6574C63.7829 19.0198 63.9021 18.7734 64.0362 18.5036C64.0362 18.5036 63.9732 18.4898 63.8412 18.4898H63.8413ZM72.2575 18.4898C71.8048 18.4898 71.4688 19.0986 71.4688 19.0986L71.5588 18.5398H70.6188L69.9875 22.3974H71.025C71.3193 20.7501 71.3744 19.4125 72.0762 19.6574C72.1994 19.0198 72.3185 18.7734 72.4525 18.5036C72.4525 18.5036 72.3895 18.4898 72.2575 18.4898H72.2575ZM60.1975 19.3186C60.7682 19.3186 60.6638 19.9628 60.6638 20.0148H59.54C59.54 19.9484 59.6463 19.3186 60.1975 19.3186H60.1975ZM73.7763 19.3936C74.1395 19.3935 74.3263 19.6388 74.3263 20.2161C74.3263 20.7398 74.0621 21.4398 73.515 21.4398C73.1519 21.4398 72.9812 21.14 72.9812 20.6698C72.9812 19.9011 73.3329 19.3936 73.7762 19.3936H73.7763ZM68.785 20.7061C68.9332 20.7063 68.9638 20.7207 68.9888 20.7274C68.9852 20.7268 68.9845 20.7274 68.9988 20.7298C69.0175 20.9016 68.895 21.7074 68.3025 21.7074C67.997 21.7074 67.9188 21.4644 67.9188 21.3211C67.9188 21.0416 68.0643 20.7061 68.785 20.7061ZM52.6288 20.7098C52.797 20.71 52.8154 20.7288 52.8438 20.7336C52.8626 20.9053 52.7395 21.7098 52.145 21.7098C51.8383 21.7098 51.7588 21.4681 51.7588 21.3248C51.7588 21.0455 51.9052 20.7098 52.6288 20.7098Z" fill="black"/>
</g>
<path d="M30.8594 21.4688H28.7031C28.849 21.0833 29.1927 20.151 29.7344 18.6719L29.7812 18.5312C29.8229 18.4271 29.875 18.2917 29.9375 18.125C30 17.9583 30.0469 17.8229 30.0781 17.7188L30.2656 18.5781L30.8594 21.4688ZM8.29688 20.4531L7.39062 15.8438C7.27604 15.2812 6.88542 15 6.21875 15H2.03125L2 15.2031C5.23958 16.026 7.33854 17.776 8.29688 20.4531ZM11.0938 15L8.5625 21.8438L8.29688 20.4531C8.02604 19.724 7.58333 19.0495 6.96875 18.4297C6.35417 17.8099 5.67188 17.349 4.92188 17.0469L7.03125 25.0156H9.76562L13.8438 15H11.0938ZM13.2656 25.0312H15.8594L17.4844 15H14.8906L13.2656 25.0312ZM25.2656 15.25C24.5469 14.9688 23.7708 14.8281 22.9375 14.8281C21.6562 14.8281 20.6094 15.1354 19.7969 15.75C18.9844 16.3646 18.5729 17.1615 18.5625 18.1406C18.5521 19.2031 19.3073 20.1094 20.8281 20.8594C21.3281 21.099 21.6771 21.3125 21.875 21.5C22.0729 21.6875 22.1719 21.8906 22.1719 22.1094C22.1719 22.4219 22.0156 22.6615 21.7031 22.8281C21.3906 22.9948 21.0312 23.0781 20.625 23.0781C19.7292 23.0781 18.9167 22.9062 18.1875 22.5625L17.8438 22.3906L17.4844 24.6406C18.2552 24.9948 19.2188 25.1719 20.375 25.1719C21.7292 25.1823 22.8151 24.875 23.6328 24.25C24.4505 23.625 24.8698 22.7917 24.8906 21.75C24.8906 20.6458 24.1615 19.7396 22.7031 19.0312C22.1927 18.7708 21.8229 18.5521 21.5938 18.375C21.3646 18.1979 21.25 18 21.25 17.7812C21.25 17.5521 21.3776 17.3516 21.6328 17.1797C21.888 17.0078 22.2552 16.9219 22.7344 16.9219C23.4635 16.9115 24.1094 17.0365 24.6719 17.2969L24.9062 17.4219L25.2656 15.25ZM31.9062 15H29.9062C29.2292 15 28.776 15.2812 28.5469 15.8438L24.7031 25.0312H27.4219L27.9688 23.5312H31.2812C31.3333 23.7604 31.4375 24.2604 31.5938 25.0312H34L31.9062 15ZM36 10V30C36 30.5417 35.8021 31.0104 35.4062 31.4062C35.0104 31.8021 34.5417 32 34 32H2C1.45833 32 0.989583 31.8021 0.59375 31.4062C0.197917 31.0104 0 30.5417 0 30V10C0 9.45833 0.197917 8.98958 0.59375 8.59375C0.989583 8.19792 1.45833 8 2 8H34C34.5417 8 35.0104 8.19792 35.4062 8.59375C35.8021 8.98958 36 9.45833 36 10Z" fill="black"/>
<g clip-path="url(#clip2_644_1883)">
<path d="M120.6 32H89.4C88.7635 32 88.153 31.7471 87.7029 31.297C87.2529 30.8469 87 30.2365 87 29.6V19.504H88.729L89.119 18.56H89.992L90.381 19.5H93.783V18.785L94.087 19.505H95.853L96.157 18.773V19.503H104.61V17.959H104.77C104.884 17.963 104.917 17.973 104.917 18.163V19.505H109.29V19.146C109.737 19.373 110.264 19.506 110.823 19.506L110.918 19.505H110.913H112.753L113.147 18.565H114.02L114.405 19.505H117.951V18.611L118.487 19.505H121.323V13.601H118.516V14.298L118.123 13.601H115.237V14.298L114.876 13.601H110.979C110.389 13.5711 109.8 13.6926 109.27 13.954L109.291 13.945V13.601H106.603V13.945C106.278 13.6885 105.867 13.5658 105.454 13.602H105.46H95.637L94.978 15.127L94.301 13.602H91.207V14.299L90.866 13.602H88.226L87.003 16.402V10.402C87.003 9.76543 87.2559 9.15498 87.7059 8.7049C88.156 8.25481 88.7665 8.00195 89.403 8.00195H120.603C121.24 8.00195 121.85 8.25481 122.3 8.7049C122.75 9.15498 123.003 9.76543 123.003 10.402V20.882H121.13C121.1 20.88 121.064 20.88 121.029 20.88C120.595 20.88 120.192 21.01 119.856 21.233L119.864 21.228V20.882H117.094C116.661 20.858 116.233 20.981 115.879 21.231L115.885 21.227V20.881H110.939V21.227C110.534 20.9986 110.077 20.8794 109.612 20.881H109.573H109.575H106.312V21.227C105.886 20.9539 105.38 20.8323 104.876 20.882L104.885 20.881H101.234L100.398 21.785L99.616 20.881H94.162V26.789H99.514L100.375 25.871L101.186 26.789H104.485V25.406H104.945C105.387 25.4232 105.828 25.3494 106.241 25.189L106.219 25.197V26.791H108.939V25.252H109.07C109.236 25.252 109.253 25.258 109.253 25.426V26.792H117.519L117.62 26.794C118.094 26.794 118.536 26.652 118.904 26.409L118.895 26.414V26.792H121.517L121.642 26.794C122.133 26.794 122.6 26.693 123.024 26.51L123.001 26.519V29.601C123.001 30.2375 122.748 30.8479 122.298 31.298C121.848 31.7481 121.238 32.001 120.601 32.001L120.6 32ZM108.105 25.961H107.087V21.726H109.423C109.845 21.6868 110.27 21.7578 110.656 21.932L110.64 21.926C110.953 22.098 111.162 22.426 111.162 22.802L111.16 22.869V22.866L111.161 22.904C111.161 23.39 110.868 23.808 110.448 23.99L110.44 23.993C110.641 24.065 110.809 24.188 110.934 24.347L110.936 24.349C111.077 24.5827 111.136 24.8568 111.104 25.128L111.105 25.122V25.96H110.089V25.43C110.137 25.1414 110.079 24.8452 109.926 24.596L109.929 24.601C109.823 24.5208 109.703 24.4629 109.574 24.4308C109.446 24.3987 109.312 24.3929 109.181 24.414L109.187 24.413H108.105V25.96V25.961ZM108.105 22.601V23.552H109.335C109.509 23.568 109.683 23.5369 109.841 23.462L109.835 23.465C109.899 23.4234 109.952 23.3664 109.989 23.2992C110.026 23.2319 110.045 23.1566 110.045 23.08L110.044 23.057V23.058C110.049 22.9815 110.032 22.9053 109.996 22.838C109.959 22.7707 109.904 22.7152 109.837 22.678L109.835 22.677C109.683 22.6091 109.517 22.5815 109.351 22.597H109.355L108.105 22.601ZM99.08 25.96H95.073V21.726H99.143L100.388 23.114L101.675 21.726H104.908C106.056 21.726 106.614 22.183 106.614 23.121C106.614 24.076 106.037 24.54 104.854 24.54H103.589V25.959H101.622L100.376 24.56L99.081 25.96H99.08ZM102.581 22.18L101.027 23.85L102.581 25.574V22.18ZM96.082 24.235V25.077H98.57L99.72 23.835L98.614 22.601H96.081V23.371H98.303V24.234L96.082 24.235ZM103.589 22.602V23.68H104.896C105.296 23.68 105.526 23.476 105.526 23.12C105.526 22.78 105.312 22.601 104.907 22.601L103.589 22.602ZM121.627 25.962H119.673V25.052H121.619C121.765 25.072 121.912 25.0339 122.03 24.946L122.029 24.947C122.067 24.9121 122.097 24.8699 122.117 24.8229C122.137 24.7759 122.148 24.7252 122.148 24.674V24.658C122.148 24.6073 122.137 24.5573 122.116 24.5114C122.095 24.4654 122.064 24.4247 122.025 24.392C121.922 24.3172 121.794 24.2836 121.667 24.298H121.669L121.482 24.292C120.568 24.268 119.533 24.24 119.533 22.987C119.533 22.377 119.915 21.726 120.984 21.726H123.001V22.628H121.156C121.013 22.612 120.87 22.6407 120.744 22.71L120.748 22.708C120.699 22.7404 120.659 22.7856 120.633 22.8388C120.607 22.8919 120.596 22.9511 120.601 23.01V23.009V23.02C120.601 23.0873 120.622 23.153 120.662 23.2076C120.701 23.2622 120.757 23.3029 120.821 23.324L120.823 23.325C120.95 23.364 121.083 23.3803 121.215 23.373H121.212L121.761 23.387C122.175 23.3457 122.588 23.4689 122.912 23.73L122.909 23.728C122.939 23.752 122.965 23.778 122.988 23.807L122.989 23.808L123.001 25.42C122.833 25.6165 122.619 25.7686 122.378 25.8629C122.137 25.9573 121.877 25.9909 121.62 25.961L121.627 25.962ZM117.678 25.962H115.706V25.052H117.668C117.815 25.0712 117.963 25.0332 118.083 24.946L118.081 24.947C118.118 24.912 118.148 24.8697 118.168 24.8227C118.189 24.7758 118.199 24.7251 118.199 24.674V24.664C118.199 24.6125 118.188 24.5616 118.167 24.5147C118.146 24.4678 118.115 24.426 118.076 24.392C117.971 24.3171 117.841 24.2836 117.713 24.298H117.715L117.529 24.292C116.618 24.268 115.584 24.24 115.584 22.987C115.584 22.377 115.964 21.726 117.031 21.726H119.059V22.628H117.203C117.061 22.6122 116.919 22.6408 116.794 22.71L116.798 22.708C116.745 22.7441 116.704 22.7938 116.677 22.8517C116.65 22.9096 116.64 22.9737 116.647 23.0371C116.653 23.1005 116.677 23.1609 116.715 23.2119C116.754 23.263 116.805 23.3027 116.864 23.327L116.866 23.328C116.994 23.3673 117.129 23.3836 117.263 23.376H117.26L117.805 23.39C118.221 23.3499 118.636 23.4732 118.963 23.734L118.96 23.731C119.07 23.8521 119.153 23.9947 119.205 24.1498C119.257 24.3049 119.277 24.4691 119.262 24.632V24.627C119.265 25.51 118.73 25.96 117.675 25.96L117.678 25.962ZM115.1 25.962H111.72V21.725H115.097V22.6H112.73V23.37H115.042V24.233H112.73V25.075L115.1 25.079V25.959V25.962ZM117.07 18.676H115.009L114.615 17.732H112.513L112.131 18.676H110.947C110.415 18.704 109.892 18.5365 109.475 18.205L109.48 18.208C109.282 17.9895 109.132 17.7321 109.039 17.4523C108.946 17.1726 108.912 16.8765 108.94 16.583L108.939 16.591C108.913 16.292 108.949 15.991 109.043 15.7062C109.137 15.4213 109.288 15.1586 109.487 14.934L109.485 14.936C109.695 14.7523 109.941 14.6139 110.206 14.5293C110.472 14.4446 110.752 14.4156 111.03 14.444L111.022 14.443H112.002V15.346H111.042C110.902 15.3279 110.759 15.341 110.624 15.3844C110.489 15.4277 110.366 15.5003 110.262 15.597L110.263 15.596C110.049 15.8698 109.945 16.2136 109.972 16.56V16.555C109.94 16.9108 110.04 17.266 110.253 17.553L110.25 17.549C110.449 17.7114 110.703 17.7897 110.959 17.767H110.955H111.409L112.84 14.437H114.36L116.073 18.437V14.437H117.614L119.392 17.385V14.437H120.432V18.669H118.988L117.068 15.491V18.669L117.07 18.676ZM113.571 15.158L112.874 16.846H114.271L113.571 15.158ZM103.772 18.674H102.76V14.44H105.088C105.513 14.3959 105.942 14.4681 106.329 14.649L106.314 14.643C106.47 14.729 106.599 14.8552 106.69 15.0084C106.78 15.1615 106.828 15.3361 106.828 15.514L106.826 15.584V15.581V15.612C106.826 15.8429 106.76 16.069 106.634 16.263C106.509 16.4571 106.33 16.6109 106.12 16.706L106.112 16.709C106.313 16.785 106.482 16.907 106.611 17.063L106.613 17.065C106.756 17.2995 106.815 17.5756 106.78 17.848L106.781 17.842V18.673H105.76L105.756 18.139V18.059C105.792 17.7979 105.735 17.5323 105.593 17.31L105.596 17.315C105.49 17.2371 105.37 17.1811 105.242 17.15C105.114 17.119 104.982 17.1135 104.852 17.134L104.858 17.133H103.773V18.673L103.772 18.674ZM103.772 15.321V16.261H105C105.173 16.2798 105.349 16.2485 105.505 16.171L105.5 16.173C105.564 16.134 105.617 16.0792 105.654 16.0139C105.691 15.9486 105.71 15.8749 105.71 15.8L105.709 15.772V15.773C105.714 15.697 105.697 15.6212 105.659 15.5549C105.622 15.4886 105.566 15.4347 105.498 15.4L105.496 15.399C105.344 15.3337 105.178 15.3062 105.013 15.319H105.016L103.772 15.321ZM93.056 18.674H91L90.611 17.73H88.503L88.111 18.674H87.011L88.824 14.44H90.327L92.048 18.447V14.44H93.699L95.023 17.311L96.24 14.44H97.925V18.672H96.885L96.883 15.36L95.416 18.673H94.528L93.057 15.355V18.673L93.056 18.674ZM89.552 15.158L88.863 16.846H90.245L89.552 15.158ZM108.44 18.673H107.408V14.44H108.441V18.672L108.44 18.673ZM102.054 18.673H98.68V14.44H102.06V15.32H99.692V16.083H102.003V16.952H99.69V17.798H102.058V18.672L102.054 18.673Z" fill="black"/>
</g>
<defs>
<clipPath id="clip0_644_1883">
<rect width="40" height="40" fill="white" transform="translate(129)"/>
</clipPath>
<clipPath id="clip1_644_1883">
<rect width="40" height="40" fill="white" transform="translate(41)"/>
</clipPath>
<clipPath id="clip2_644_1883">
<rect width="36" height="24" fill="white" transform="translate(87 8)"/>
</clipPath>
</defs>
</svg>
