<svg width="72" height="55" viewBox="0 0 72 55" fill="none" xmlns="http://www.w3.org/2000/svg">
<path d="M18.9692 29.0985C20.672 28.8415 23.58 29.1024 24.8888 31.3299M25.5466 34.6235C25.6309 33.2169 25.3663 32.1425 24.8888 31.3299M24.8888 31.3299C25.7658 31.2438 27.4934 30.3614 27.3882 27.52M43.963 34.6235C46.1993 35.5881 50.6719 36.1494 50.6719 30.6771M47.3832 26.3361C48.2602 28.66 51.277 32.7818 56.3284 30.6771M35.5441 13.5761C37.2542 13.6199 40.6744 12.5237 40.6744 7.78802" stroke="black" stroke-width="2.63093" stroke-linecap="round"/>
<path d="M13.8458 37.4363C9.68016 38.7518 2.00662 38.7781 4.63755 28.3596C2.09432 25.4218 -0.861092 18.7305 7.66311 15.4681M11.3464 19.6776C8.80317 16.0381 6.42657 8.54877 17.266 7.70687M17.266 9.81161C18.1868 6.69835 21.9753 1.47158 29.7629 5.47058M29.7629 11.3902C29.929 10.4466 30.2063 9.40294 30.6085 8.3646M46.6008 5.47058C37.3661 -1.49904 32.5428 3.37142 30.6085 8.3646M30.6085 8.3646C28.9235 8.3646 25.3429 9.07495 24.501 11.9164M45.0223 8.3646C47.697 6.17217 53.7569 3.8131 56.5983 11.9164C60.6763 11.434 68.3059 12.9424 66.2012 22.8347M63.4387 23.624C67.429 24.3256 74.0414 28.2807 68.569 38.4887M66.2012 36.2524C67.8236 38.7956 69.2268 43.8558 61.8602 43.7506M64.7542 34.1477C63.3072 34.1038 60.4921 34.9896 60.8078 38.8833C61.2024 43.7506 62.781 52.5642 57.5191 52.6957C52.2573 52.8273 59.2293 44.2767 50.4157 44.5398C43.3648 44.7503 25.378 44.6275 17.266 44.5398C14.8543 44.9783 10.9255 43.8295 14.5035 35.7262" stroke="black" stroke-width="2.63093" stroke-linecap="round"/>
<path d="M18.0459 23.0211C18.1274 23.2188 18.1777 23.4127 18.197 23.6029C18.2162 23.793 18.2023 23.9763 18.1552 24.1527C18.1112 24.3271 18.0335 24.4906 17.9222 24.6431C17.8109 24.7957 17.666 24.9306 17.4875 25.048C17.2875 25.1795 17.0775 25.2691 16.8575 25.3167C16.6407 25.3624 16.4246 25.3589 16.2094 25.3065C15.9942 25.2541 15.7849 25.1536 15.5815 25.0052C15.3792 24.8517 15.191 24.6426 15.017 24.378C14.847 24.1195 14.7265 23.8658 14.6556 23.6172C14.5857 23.3634 14.5657 23.1252 14.5957 22.9027C14.6237 22.6771 14.7001 22.4682 14.825 22.2759C14.9529 22.0816 15.1261 21.9126 15.3446 21.7689C15.5354 21.6434 15.727 21.5593 15.9193 21.5166C16.1127 21.4688 16.2982 21.4593 16.4757 21.488C16.6544 21.5116 16.8205 21.5699 16.9742 21.6628C17.1309 21.7537 17.2676 21.871 17.3842 22.0148L16.7425 22.4367C16.5841 22.2896 16.4119 22.2088 16.2261 22.1944C16.0382 22.1768 15.8674 22.2186 15.7135 22.3198C15.4457 22.4959 15.3125 22.7223 15.3138 22.9992C15.3131 23.273 15.423 23.5776 15.6436 23.913C15.8682 24.2547 16.1048 24.4804 16.3534 24.5903C16.603 24.695 16.8525 24.6655 17.1017 24.5015C17.2926 24.3761 17.4115 24.2251 17.4586 24.0487C17.5067 23.8672 17.4886 23.6653 17.4042 23.4431L18.0459 23.0211Z" fill="#FF6700"/>
<path d="M18.0775 42.4335L16.4141 39.9037L15.4908 40.5108L15.1387 39.9753L17.6316 38.3362L17.9837 38.8717L17.0558 39.4818L18.7192 42.0116L18.0775 42.4335Z" fill="#FF6700"/>
<path d="M21.7355 23.6498C21.8718 23.6498 22.0007 23.6259 22.1222 23.578C22.2438 23.5265 22.3487 23.4509 22.4371 23.3515C22.5292 23.2484 22.601 23.1176 22.6526 22.9592C22.7042 22.8008 22.73 22.613 22.73 22.3957C22.73 21.9611 22.6452 21.6314 22.4758 21.4067C22.3064 21.182 22.0596 21.0697 21.7355 21.0697C21.4113 21.0697 21.1627 21.182 20.9896 21.4067C20.8165 21.6314 20.7299 21.9611 20.7299 22.3957C20.7299 22.8303 20.8165 23.1489 20.9896 23.3515C21.1664 23.5504 21.415 23.6498 21.7355 23.6498ZM21.7355 24.3073C21.1682 24.3073 20.7318 24.1416 20.4261 23.8101C20.124 23.4786 19.973 23.0016 19.973 22.3791C19.973 22.0697 20.0117 21.7916 20.089 21.5448C20.1664 21.2981 20.2806 21.09 20.4316 20.9205C20.5826 20.7474 20.7668 20.6166 20.9841 20.5282C21.2014 20.4362 21.4519 20.3901 21.7355 20.3901C22.0154 20.3901 22.264 20.4362 22.4813 20.5282C22.7023 20.6166 22.8865 20.7474 23.0338 20.9205C23.1812 21.0936 23.2935 21.3054 23.3709 21.5559C23.4482 21.8027 23.4869 22.0826 23.4869 22.3957C23.4869 23.0292 23.3359 23.5062 23.0338 23.8266C22.7355 24.1471 22.3027 24.3073 21.7355 24.3073Z" fill="#FF6700"/>
<path d="M23.4212 41.3137V39.6673H21.9903V41.3137H21.2223V37.6452H21.9903V39.0264H23.4212V37.6452H24.1947V41.3137H23.4212Z" fill="#FF6700"/>
<path d="M25.0486 24.3244L26.1531 20.8261L26.8854 21.0573L25.9822 23.9181L27.7155 24.4654L27.5143 25.1029L25.0486 24.3244Z" fill="#FF6700"/>
<path d="M28.0519 41.4695C28.1818 41.5105 28.312 41.5265 28.4423 41.5174C28.5737 41.5048 28.6966 41.4644 28.8108 41.3962C28.9297 41.3256 29.0375 41.2225 29.1344 41.087C29.2312 40.9515 29.3124 40.7801 29.3778 40.5729C29.5087 40.1585 29.5271 39.8186 29.4332 39.5533C29.3393 39.2881 29.1378 39.1066 28.8287 39.009C28.5196 38.9114 28.2487 38.9437 28.016 39.1059C27.7832 39.268 27.6015 39.5563 27.4706 39.9707C27.3397 40.3852 27.3263 40.7151 27.4304 40.9604C27.5391 41.2033 27.7463 41.373 28.0519 41.4695ZM27.8539 42.0964C27.313 41.9256 26.9467 41.6362 26.755 41.228C26.5668 40.821 26.5664 40.3206 26.7538 39.727C26.8469 39.432 26.9675 39.1785 27.1156 38.9664C27.2637 38.7544 27.4352 38.5903 27.6302 38.4742C27.8264 38.3546 28.0414 38.2854 28.2752 38.2665C28.5102 38.2441 28.7629 38.2756 29.0333 38.361C29.3003 38.4453 29.5235 38.564 29.703 38.7173C29.8871 38.8681 30.0234 39.0483 30.1117 39.2577C30.2001 39.4671 30.2435 39.7029 30.2418 39.9651C30.2413 40.2237 30.1939 40.5023 30.0996 40.8008C29.9089 41.4049 29.6212 41.8143 29.2368 42.029C28.8558 42.2447 28.3948 42.2672 27.8539 42.0964Z" fill="#FF6700"/>
<path d="M33.6765 23.6194C33.811 23.5973 33.9343 23.5527 34.0465 23.4857C34.1581 23.4151 34.2494 23.3236 34.3205 23.2111C34.3946 23.0944 34.4442 22.9537 34.4694 22.7891C34.4946 22.6244 34.4895 22.4349 34.4542 22.2204C34.3837 21.7916 34.2466 21.48 34.0429 21.2858C33.8393 21.0916 33.5775 21.0209 33.2577 21.0735C32.9379 21.1261 32.7108 21.2773 32.5764 21.5271C32.4421 21.7769 32.4102 22.1162 32.4807 22.5451C32.5513 22.974 32.6884 23.2743 32.8921 23.4461C33.0989 23.6137 33.3604 23.6714 33.6765 23.6194ZM33.7833 24.2681C33.2236 24.3602 32.766 24.2675 32.4105 23.9901C32.0587 23.712 31.8322 23.2659 31.7312 22.6516C31.681 22.3463 31.674 22.0657 31.7102 21.8096C31.7465 21.5535 31.8254 21.3296 31.9469 21.1379C32.0678 20.9426 32.2283 20.7837 32.4284 20.6612C32.6279 20.5351 32.8675 20.449 33.1474 20.4029C33.4236 20.3575 33.6764 20.3625 33.9058 20.4181C34.1382 20.4695 34.3411 20.5686 34.5146 20.7155C34.6881 20.8624 34.8333 21.0532 34.9503 21.2877C35.0667 21.5187 35.1503 21.7886 35.2011 22.0976C35.304 22.7227 35.2324 23.2179 34.9864 23.5831C34.744 23.9477 34.343 24.1761 33.7833 24.2681Z" fill="#FF6700"/>
<path d="M34.8187 37.5828L35.5929 37.4554L35.9902 39.8705C36.0625 40.3103 35.9882 40.6641 35.7673 40.9319C35.5457 41.196 35.1968 41.3672 34.7207 41.4456C34.281 41.5179 33.9147 41.4699 33.622 41.3016C33.3329 41.1326 33.1525 40.8301 33.0807 40.394L32.6762 37.9353L33.4449 37.8088L33.8378 40.1966C33.8748 40.422 33.9605 40.5908 34.0947 40.7031C34.2288 40.8154 34.3995 40.8545 34.6067 40.8204C35.0901 40.7409 35.2932 40.4667 35.2161 39.9979L34.8187 37.5828Z" fill="#FF6700"/>
<path d="M38.2662 19.7894L37.9436 20.7126L38.8512 21.0297C39.0459 21.0977 39.1984 21.1023 39.3088 21.0433C39.4191 20.9843 39.4974 20.8887 39.5436 20.7566C39.5909 20.621 39.5898 20.4958 39.5402 20.3809C39.4941 20.2672 39.3807 20.1788 39.1999 20.1156L38.2662 19.7894ZM38.58 23.1121L38.8916 22.2202C38.95 22.0533 38.953 21.9217 38.9008 21.8254C38.8499 21.7257 38.7201 21.6394 38.5114 21.5665L37.7395 21.2967L37.2656 22.6528L36.5615 22.4067L37.7717 18.9435L39.5294 19.5578C39.6894 19.6136 39.8245 19.6901 39.935 19.7873C40.0501 19.8821 40.1388 19.9911 40.2011 20.1144C40.2646 20.2341 40.2988 20.3651 40.3037 20.5072C40.3134 20.6472 40.2933 20.7884 40.2435 20.931C40.1778 21.1187 40.0743 21.2698 39.9329 21.3843C39.7961 21.4965 39.634 21.553 39.4464 21.5537C39.5824 21.6559 39.6641 21.7683 39.6914 21.891C39.7223 22.0149 39.7024 22.1777 39.632 22.3794L39.2893 23.36L38.58 23.1121Z" fill="#FF6700"/>
<path d="M40.3478 40.4425L40.4525 40.0928C40.318 40.2096 40.144 40.2776 39.9306 40.2967C39.7184 40.3122 39.4923 40.2781 39.2524 40.1943C39.0124 40.1104 38.8127 39.9841 38.6533 39.8152C38.4985 39.644 38.3813 39.449 38.3018 39.23C38.2269 39.0087 38.1919 38.7741 38.1966 38.526C38.2026 38.2745 38.2475 38.0288 38.3313 37.7889C38.42 37.535 38.5398 37.3096 38.6905 37.1126C38.8425 36.9121 39.019 36.7533 39.2199 36.6362C39.4208 36.5192 39.6437 36.4507 39.8886 36.431C40.1347 36.4077 40.3986 36.4453 40.6802 36.5437C40.8854 36.6154 41.0663 36.7118 41.223 36.8329C41.3831 36.9552 41.511 37.0916 41.6067 37.2421C41.7059 37.3938 41.7699 37.5566 41.7988 37.7306C41.8325 37.9023 41.8259 38.0775 41.779 38.2563L41.0488 38.0011C41.0663 37.9175 41.0647 37.833 41.0438 37.7477C41.0241 37.6588 40.9886 37.5762 40.9373 37.4997C40.8859 37.4233 40.8188 37.353 40.7359 37.2889C40.6564 37.226 40.568 37.1776 40.4706 37.1435C40.1785 37.0415 39.9056 37.069 39.6517 37.2261C39.4025 37.3809 39.2056 37.6652 39.061 38.079C39.0112 38.2215 38.9781 38.3719 38.9619 38.5301C38.9503 38.686 38.9621 38.8365 38.9973 38.9814C39.0372 39.1241 39.1052 39.2532 39.2014 39.3688C39.2976 39.4843 39.4291 39.5713 39.596 39.6296C39.7142 39.6709 39.831 39.6883 39.9465 39.6818C40.0654 39.6766 40.1758 39.6508 40.2778 39.6045C40.3798 39.5582 40.4681 39.4954 40.5426 39.4161C40.6219 39.3345 40.6803 39.2399 40.718 39.1321L39.9513 38.8641L40.1536 38.2852L41.5983 38.7901L40.9476 40.6521L40.3478 40.4425Z" fill="#FF6700"/>
<path d="M43.9375 22.6333V24.1802H43.1696V20.5117H45.7829V21.1526H43.9375V21.9868H45.5508V22.6333H43.9375Z" fill="#FF6700"/>
<path d="M46.5731 41.3137V39.6673H45.1421V41.3137H44.3741V37.6452H45.1421V39.0264H46.5731V37.6452H47.3466V41.3137H46.5731Z" fill="#FF6700"/>
<path d="M50.7782 19.4862L51.5103 19.2042L52.39 21.4882C52.5502 21.9041 52.5493 22.2656 52.3874 22.5727C52.2241 22.8763 51.9173 23.1149 51.467 23.2883C51.0511 23.4485 50.6828 23.4759 50.362 23.3706C50.0446 23.2639 49.8064 23.0043 49.6476 22.5919L48.752 20.2666L49.4789 19.9866L50.3487 22.2448C50.4308 22.4579 50.5489 22.6058 50.7032 22.6885C50.8574 22.7712 51.0324 22.7748 51.2284 22.6994C51.6855 22.5233 51.8287 22.2136 51.6579 21.7702L50.7782 19.4862Z" fill="#FF6700"/>
<path d="M52.2083 40.4641L51.1201 37.6388L50.089 38.036L49.8586 37.4379L52.6427 36.3656L52.8731 36.9636L51.8368 37.3628L52.925 40.1881L52.2083 40.4641Z" fill="#FF6700"/>
<path d="M53.709 23.2908L55.303 19.9867L55.9947 20.3204L54.6911 23.0224L56.3283 23.8123L56.0378 24.4144L53.709 23.2908Z" fill="#FF6700"/>
<path d="M57.9086 38.9982C57.9736 38.8211 57.9731 38.6654 57.9069 38.5312C57.8408 38.3971 57.7032 38.2796 57.4942 38.1788C57.2985 38.0843 57.1349 38.0463 57.0033 38.0646C56.8718 38.083 56.7756 38.1552 56.7148 38.2812C56.6636 38.3874 56.6609 38.4904 56.7068 38.5902C56.756 38.6917 56.8623 38.8104 57.0257 38.9465C57.1924 39.0842 57.3491 39.217 57.4959 39.3451C57.6476 39.4714 57.7712 39.5924 57.8667 39.708C57.9237 39.7764 57.9733 39.8474 58.0155 39.9209C58.0578 39.9945 58.0869 40.0739 58.1029 40.1594C58.119 40.2448 58.1195 40.3371 58.1044 40.4361C58.0893 40.5352 58.0538 40.6428 57.9977 40.7589C57.9097 40.9413 57.8005 41.0829 57.6702 41.1836C57.5447 41.2825 57.4015 41.3463 57.2404 41.375C57.0827 41.4052 56.913 41.401 56.7312 41.3624C56.5512 41.3287 56.3649 41.2655 56.1725 41.1726C55.9668 41.0734 55.7906 40.9598 55.6438 40.8317C55.4955 40.7069 55.3823 40.5685 55.3044 40.4164C55.2264 40.2643 55.1855 40.1034 55.1814 39.9338C55.179 39.7609 55.2209 39.5807 55.3072 39.3933L55.974 39.715C55.899 39.8874 55.9022 40.0546 55.9836 40.2165C56.0698 40.3767 56.2241 40.5105 56.4464 40.6177C56.6521 40.7169 56.8288 40.7532 56.9767 40.7263C57.1295 40.6978 57.2419 40.6089 57.314 40.4596C57.338 40.4099 57.3513 40.3611 57.3539 40.3133C57.3598 40.2671 57.3509 40.2178 57.3271 40.1654C57.3082 40.1113 57.272 40.055 57.2185 39.9964C57.1665 39.9346 57.0947 39.8672 57.0031 39.7944C56.8198 39.6487 56.6649 39.5249 56.5382 39.4229C56.4165 39.3192 56.3104 39.2128 56.2199 39.1037C56.0791 38.9376 55.9911 38.7684 55.9557 38.5959C55.9252 38.4217 55.9604 38.2301 56.0612 38.0211C56.1333 37.8718 56.2238 37.7478 56.3327 37.6491C56.4433 37.547 56.57 37.4752 56.7127 37.4337C56.8588 37.3937 57.0184 37.3849 57.1917 37.4071C57.3683 37.431 57.5578 37.4917 57.7602 37.5894C57.9692 37.6902 58.1421 37.8064 58.2791 37.9379C58.416 38.0694 58.516 38.2096 58.5791 38.3586C58.6455 38.5093 58.6765 38.6653 58.6722 38.8268C58.6712 38.9899 58.6356 39.1527 58.5654 39.3151L57.9086 38.9982Z" fill="#FF6700"/>
</svg>
