<svg width="18" height="18" viewBox="0 0 18 18" fill="none" xmlns="http://www.w3.org/2000/svg">
<path d="M15.75 5.34375C14.8549 5.34375 13.9964 4.98817 13.3635 4.35523C12.7306 3.7223 12.375 2.86386 12.375 1.96875C12.375 1.81957 12.3157 1.67649 12.2102 1.571C12.1048 1.46551 11.9617 1.40625 11.8125 1.40625H9C8.85082 1.40625 8.70774 1.46551 8.60225 1.571C8.49676 1.67649 8.4375 1.81957 8.4375 1.96875V10.9687C8.43695 11.2202 8.369 11.4669 8.24073 11.6831C8.11245 11.8994 7.92854 12.0773 7.70815 12.1983C7.48776 12.3193 7.23895 12.3791 6.98764 12.3713C6.73632 12.3635 6.49169 12.2884 6.27923 12.154C6.06677 12.0195 5.89424 11.8305 5.77962 11.6068C5.665 11.383 5.61248 11.1325 5.62752 10.8816C5.64257 10.6306 5.72463 10.3882 5.86516 10.1797C6.0057 9.97121 6.19956 9.80421 6.42656 9.69609C6.52334 9.6516 6.60528 9.58022 6.66262 9.49047C6.71997 9.40071 6.7503 9.29635 6.75 9.18984V6.26484C6.75139 6.18146 6.73375 6.09885 6.69842 6.02331C6.66309 5.94777 6.61099 5.88128 6.54609 5.82891C6.48314 5.77703 6.40965 5.73948 6.33073 5.71884C6.25182 5.6982 6.16935 5.69497 6.08906 5.70937C5.08837 5.88862 4.15957 6.3496 3.41167 7.03821C2.66378 7.72681 2.12784 8.61447 1.86674 9.59699C1.60565 10.5795 1.63024 11.6161 1.93763 12.5852C2.24502 13.5542 2.82245 14.4154 3.60215 15.0678C4.38186 15.7202 5.33147 16.1366 6.33954 16.2682C7.34761 16.3998 8.3723 16.2411 9.29334 15.8107C10.2144 15.3804 10.9936 14.6962 11.5394 13.8386C12.0853 12.9809 12.3751 11.9854 12.375 10.9687V8.45859C13.4168 9.00203 14.575 9.28434 15.75 9.28125C15.8992 9.28125 16.0423 9.22199 16.1477 9.1165C16.2532 9.01101 16.3125 8.86793 16.3125 8.71875V5.90625C16.3125 5.75707 16.2532 5.61399 16.1477 5.5085C16.0423 5.40301 15.8992 5.34375 15.75 5.34375ZM15.1875 8.12812C14.0895 8.03067 13.0379 7.63967 12.143 6.99609C12.0583 6.93765 11.9594 6.90322 11.8567 6.89648C11.7541 6.88974 11.6515 6.91093 11.5599 6.9578C11.4684 7.00468 11.3912 7.07548 11.3366 7.16269C11.282 7.2499 11.2521 7.35027 11.25 7.45312V10.9687C11.2496 11.7421 11.0366 12.5004 10.6344 13.1609C10.2321 13.8214 9.65606 14.3586 8.96914 14.7139C8.28222 15.0691 7.51087 15.2287 6.73938 15.1752C5.9679 15.1217 5.22596 14.8571 4.59465 14.4105C3.96334 13.9638 3.46695 13.3523 3.15971 12.6426C2.85248 11.9329 2.74623 11.1524 2.85258 10.3864C2.95893 9.6204 3.27377 8.89838 3.76272 8.29923C4.25166 7.70007 4.89589 7.24684 5.625 6.98906V8.86641C5.2613 9.10941 4.96679 9.44251 4.77016 9.83323C4.57354 10.224 4.48152 10.659 4.50308 11.0958C4.52463 11.5327 4.65903 11.9566 4.89317 12.326C5.12731 12.6955 5.45319 12.998 5.83904 13.204C6.22489 13.41 6.65755 13.5125 7.09482 13.5015C7.53209 13.4906 7.95905 13.3664 8.33407 13.1413C8.70909 12.9162 9.01937 12.5977 9.23466 12.217C9.44995 11.8362 9.5629 11.4062 9.5625 10.9687V2.53125H11.2852C11.4112 3.52219 11.8629 4.44319 12.5692 5.14953C13.2756 5.85588 14.1966 6.30756 15.1875 6.43359V8.12812Z" fill="white"/>
</svg>
