<svg width="24" height="24" viewBox="0 0 24 24" fill="none" xmlns="http://www.w3.org/2000/svg">
<path d="M18.0939 22.6667H5.90724C5.6507 22.6606 5.39787 22.6041 5.16319 22.5003C4.92851 22.3965 4.71659 22.2475 4.53952 22.0617C4.36246 21.876 4.22373 21.6572 4.13125 21.4178C4.03877 21.1785 3.99437 20.9232 4.00057 20.6667V7.48669H5.3339V20.6667C5.32754 20.7482 5.33734 20.8301 5.36275 20.9077C5.38816 20.9854 5.42866 21.0573 5.48195 21.1192C5.53523 21.1812 5.60023 21.232 5.67322 21.2688C5.7462 21.3055 5.82574 21.3275 5.90724 21.3334H18.0939C18.1754 21.3275 18.2549 21.3055 18.3279 21.2688C18.4009 21.232 18.4659 21.1812 18.5192 21.1192C18.5725 21.0573 18.613 20.9854 18.6384 20.9077C18.6638 20.8301 18.6736 20.7482 18.6672 20.6667V7.48669H20.0006V20.6667C20.0068 20.9232 19.9624 21.1785 19.8699 21.4178C19.7774 21.6572 19.6387 21.876 19.4616 22.0617C19.2846 22.2475 19.0726 22.3965 18.838 22.5003C18.6033 22.6041 18.3504 22.6606 18.0939 22.6667V22.6667Z" fill="black"/>
<path d="M20.5193 5.99996H3.33268C3.15587 5.99996 2.9863 5.92972 2.86128 5.8047C2.73625 5.67967 2.66602 5.5101 2.66602 5.33329C2.66602 5.15648 2.73625 4.98691 2.86128 4.86189C2.9863 4.73686 3.15587 4.66663 3.33268 4.66663H20.5193C20.6962 4.66663 20.8657 4.73686 20.9908 4.86189C21.1158 4.98691 21.186 5.15648 21.186 5.33329C21.186 5.5101 21.1158 5.67967 20.9908 5.8047C20.8657 5.92972 20.6962 5.99996 20.5193 5.99996Z" fill="black"/>
<path d="M14 8.66663H15.3333V18.6666H14V8.66663Z" fill="black"/>
<path d="M8.66602 8.66663H9.99935V18.6666H8.66602V8.66663Z" fill="black"/>
<path d="M15.3327 3.90671H14.066V2.66671H9.93268V3.90671H8.66602V2.66671C8.66559 2.32434 8.79688 1.99492 9.03268 1.74671C9.26849 1.49849 9.59074 1.35049 9.93268 1.33337H14.066C14.408 1.35049 14.7302 1.49849 14.966 1.74671C15.2018 1.99492 15.3331 2.32434 15.3327 2.66671V3.90671Z" fill="black"/>
</svg>
