<svg width="62" height="47" viewBox="0 0 62 47" fill="none" xmlns="http://www.w3.org/2000/svg">
<path d="M16.3931 24.9842C17.8373 24.7662 20.3038 24.9875 21.4139 26.8768M21.9718 29.6703C22.0433 28.4774 21.8189 27.5661 21.4139 26.8768M21.4139 26.8768C22.1577 26.8038 23.6231 26.0553 23.5338 23.6453M37.5921 29.6703C39.4889 30.4885 43.2824 30.9646 43.2824 26.3231M40.4931 22.6412C41.2369 24.6123 43.7956 28.1083 48.0801 26.3231M30.4514 11.8185C31.9019 11.8557 34.8028 10.9259 34.8028 6.90924" stroke="white" stroke-width="2.23148" stroke-linecap="round"/>
<path d="M12.0473 32.0561C8.5141 33.1719 2.00562 33.1942 4.2371 24.3575C2.08 21.8657 -0.426701 16.1903 6.8033 13.4233M9.92737 16.9936C7.77027 13.9068 5.7545 7.55449 14.9482 6.84041M14.9482 8.6256C15.7292 5.98501 18.9425 1.55181 25.5477 4.94366M25.5477 9.96449C25.6886 9.16417 25.9238 8.27898 26.265 7.39828M39.8292 4.94366C31.9965 -0.967789 27.9056 3.16321 26.265 7.39828M26.265 7.39828C24.8358 7.39829 21.7988 8.00079 21.0848 10.4108M38.4903 7.39828C40.759 5.53872 45.8988 3.53782 48.3088 10.4108C51.7676 10.0017 58.2389 11.2811 56.4537 19.6714M54.1107 20.3409C57.4951 20.9359 63.1035 24.2906 58.4621 32.9487M56.4537 31.052C57.8298 33.2091 59.0199 37.501 52.7718 37.4117M55.2264 29.2668C53.9991 29.2296 51.6114 29.9809 51.8792 33.2835C52.2139 37.4117 53.5528 44.8872 49.0898 44.9987C44.6269 45.1103 50.5403 37.858 43.0648 38.0811C37.0845 38.2597 21.8286 38.1555 14.9482 38.0811C12.9027 38.4531 9.57033 37.4786 12.6051 30.6057" stroke="white" stroke-width="2.23148" stroke-linecap="round"/>
<path d="M15.5602 19.7552C15.6293 19.9228 15.672 20.0873 15.6883 20.2486C15.7046 20.4098 15.6928 20.5653 15.6529 20.7149C15.6155 20.8629 15.5497 21.0015 15.4553 21.1309C15.3609 21.2603 15.238 21.3747 15.0866 21.4743C14.9169 21.5858 14.7388 21.6618 14.5522 21.7022C14.3683 21.7409 14.1851 21.738 14.0025 21.6936C13.82 21.6491 13.6424 21.5639 13.4699 21.438C13.2983 21.3078 13.1387 21.1305 12.9911 20.906C12.847 20.6867 12.7448 20.4716 12.6846 20.2607C12.6253 20.0454 12.6084 19.8434 12.6339 19.6547C12.6576 19.4634 12.7224 19.2861 12.8283 19.123C12.9368 18.9582 13.0837 18.8149 13.269 18.693C13.4309 18.5866 13.5934 18.5153 13.7565 18.4791C13.9205 18.4385 14.0778 18.4304 14.2284 18.4548C14.3799 18.4748 14.5209 18.5242 14.6512 18.603C14.7841 18.6801 14.9001 18.7796 14.9989 18.9016L14.4547 19.2594C14.3203 19.1347 14.1743 19.0662 14.0167 19.0539C13.8573 19.039 13.7124 19.0745 13.5819 19.1603C13.3548 19.3097 13.2418 19.5017 13.2429 19.7365C13.2423 19.9688 13.3355 20.2271 13.5226 20.5117C13.7131 20.8014 13.9138 20.9929 14.1246 21.0861C14.3364 21.1749 14.5479 21.1498 14.7594 21.0108C14.9212 20.9044 15.0221 20.7764 15.0621 20.6267C15.1029 20.4727 15.0875 20.3015 15.0159 20.113L15.5602 19.7552Z" fill="#FF6700"/>
<path d="M15.5873 36.2203L14.1764 34.0746L13.3933 34.5895L13.0947 34.1353L15.209 32.745L15.5077 33.1992L14.7207 33.7167L16.1316 35.8624L15.5873 36.2203Z" fill="#FF6700"/>
<path d="M18.7395 20.2738C18.8551 20.2738 18.9644 20.2535 19.0675 20.2128C19.1706 20.1691 19.2596 20.1051 19.3346 20.0207C19.4127 19.9332 19.4736 19.8223 19.5174 19.688C19.5611 19.5537 19.583 19.3943 19.583 19.21C19.583 18.8414 19.5111 18.5618 19.3674 18.3712C19.2237 18.1806 19.0144 18.0854 18.7395 18.0854C18.4646 18.0854 18.2537 18.1806 18.1069 18.3712C17.96 18.5618 17.8866 18.8414 17.8866 19.21C17.8866 19.5787 17.96 19.8489 18.1069 20.0207C18.2568 20.1894 18.4677 20.2738 18.7395 20.2738ZM18.7395 20.8314C18.2584 20.8314 17.8882 20.6908 17.6289 20.4097C17.3727 20.1285 17.2446 19.7239 17.2446 19.196C17.2446 18.9335 17.2774 18.6977 17.343 18.4884C17.4086 18.279 17.5055 18.1025 17.6336 17.9588C17.7616 17.812 17.9178 17.7011 18.1022 17.6261C18.2865 17.548 18.4989 17.509 18.7395 17.509C18.9769 17.509 19.1878 17.548 19.3721 17.6261C19.5595 17.7011 19.7157 17.812 19.8407 17.9588C19.9657 18.1057 20.061 18.2853 20.1266 18.4977C20.1922 18.707 20.225 18.9445 20.225 19.21C20.225 19.7474 20.0969 20.1519 19.8407 20.4237C19.5877 20.6955 19.2206 20.8314 18.7395 20.8314Z" fill="#FF6700"/>
<path d="M20.1687 35.2558V33.8593H18.955V35.2558H18.3036V32.1442H18.955V33.3157H20.1687V32.1442H20.8247V35.2558H20.1687Z" fill="#FF6700"/>
<path d="M21.5764 20.8501L22.5132 17.8829L23.1344 18.079L22.3682 20.5055L23.8384 20.9697L23.6677 21.5104L21.5764 20.8501Z" fill="#FF6700"/>
<path d="M24.1235 35.392C24.2338 35.4268 24.3442 35.4404 24.4547 35.4327C24.5662 35.422 24.6704 35.3878 24.7673 35.3299C24.8681 35.27 24.9596 35.1826 25.0417 35.0677C25.1239 34.9527 25.1927 34.8074 25.2482 34.6316C25.3592 34.2801 25.3748 33.9918 25.2952 33.7668C25.2155 33.5418 25.0446 33.3879 24.7824 33.3052C24.5203 33.2224 24.2905 33.2498 24.0931 33.3873C23.8957 33.5248 23.7415 33.7693 23.6305 34.1209C23.5195 34.4724 23.5082 34.7522 23.5965 34.9602C23.6887 35.1663 23.8644 35.3102 24.1235 35.392ZM23.9556 35.9238C23.4969 35.7789 23.1862 35.5334 23.0236 35.1872C22.8639 34.842 22.8636 34.4176 23.0225 33.9142C23.1016 33.6639 23.2039 33.4489 23.3294 33.269C23.455 33.0892 23.6005 32.95 23.7659 32.8515C23.9323 32.7501 24.1146 32.6914 24.313 32.6753C24.5123 32.6564 24.7266 32.6831 24.956 32.7555C25.1824 32.827 25.3717 32.9277 25.524 33.0577C25.6801 33.1856 25.7957 33.3384 25.8707 33.5161C25.9456 33.6937 25.9824 33.8937 25.981 34.116C25.9805 34.3354 25.9403 34.5717 25.8604 34.8249C25.6986 35.3373 25.4547 35.6845 25.1285 35.8666C24.8054 36.0496 24.4144 36.0687 23.9556 35.9238Z" fill="#FF6700"/>
<path d="M28.8529 20.2491C28.9669 20.2304 29.0715 20.1926 29.1667 20.1358C29.2613 20.0759 29.3388 19.9982 29.399 19.9028C29.4619 19.8038 29.504 19.6845 29.5254 19.5448C29.5467 19.4052 29.5424 19.2444 29.5125 19.0626C29.4527 18.6988 29.3364 18.4346 29.1636 18.2699C28.9909 18.1051 28.7689 18.0451 28.4976 18.0897C28.2263 18.1344 28.0337 18.2626 27.9198 18.4745C27.8058 18.6864 27.7788 18.9742 27.8386 19.3379C27.8985 19.7017 28.0148 19.9564 28.1876 20.1021C28.3629 20.2442 28.5847 20.2932 28.8529 20.2491ZM28.9434 20.7994C28.4687 20.8775 28.0806 20.7989 27.7791 20.5635C27.4806 20.3277 27.2886 19.9493 27.2029 19.4283C27.1603 19.1693 27.1543 18.9313 27.1851 18.7141C27.2159 18.4969 27.2828 18.307 27.3858 18.1444C27.4884 17.9787 27.6245 17.844 27.7942 17.74C27.9634 17.6331 28.1667 17.56 28.404 17.521C28.6383 17.4824 28.8527 17.4867 29.0473 17.5339C29.2444 17.5774 29.4166 17.6615 29.5637 17.7861C29.7108 17.9107 29.834 18.0725 29.9333 18.2715C30.032 18.4674 30.1029 18.6963 30.146 18.9583C30.2332 19.4885 30.1725 19.9085 29.9638 20.2183C29.7583 20.5276 29.4181 20.7213 28.9434 20.7994Z" fill="#FF6700"/>
<path d="M29.8214 32.0925L30.478 31.9845L30.815 34.0329C30.8764 34.4059 30.8134 34.706 30.6259 34.9331C30.438 35.1571 30.1421 35.3024 29.7383 35.3688C29.3653 35.4302 29.0547 35.3895 28.8064 35.2467C28.5612 35.1034 28.4082 34.8468 28.3473 34.4769L28.0042 32.3915L28.6562 32.2842L28.9894 34.3095C29.0208 34.5006 29.0935 34.6438 29.2073 34.7391C29.3211 34.8343 29.4659 34.8675 29.6416 34.8386C30.0516 34.7711 30.2239 34.5386 30.1584 34.1409L29.8214 32.0925Z" fill="#FF6700"/>
<path d="M32.7893 17.0044L32.5157 17.7875L33.2854 18.0564C33.4506 18.1142 33.58 18.118 33.6736 18.068C33.7672 18.0179 33.8335 17.9369 33.8727 17.8248C33.9129 17.7098 33.912 17.6036 33.8699 17.5062C33.8308 17.4098 33.7345 17.3348 33.5812 17.2812L32.7893 17.0044ZM33.0554 19.8227L33.3198 19.0662C33.3692 18.9246 33.3718 18.813 33.3276 18.7314C33.2843 18.6468 33.1742 18.5735 32.9973 18.5117L32.3425 18.2829L31.9406 19.4331L31.3434 19.2244L32.3699 16.287L33.8607 16.808C33.9964 16.8554 34.111 16.9203 34.2047 17.0027C34.3023 17.0831 34.3776 17.1756 34.4304 17.2801C34.4843 17.3816 34.5133 17.4927 34.5175 17.6133C34.5256 17.732 34.5086 17.8518 34.4663 17.9727C34.4107 18.132 34.3229 18.2601 34.2029 18.3572C34.0869 18.4524 33.9494 18.5003 33.7903 18.5009C33.9056 18.5876 33.9749 18.6829 33.9981 18.787C34.0243 18.8921 34.0074 19.0302 33.9477 19.2012L33.657 20.0329L33.0554 19.8227Z" fill="#FF6700"/>
<path d="M34.5551 34.5218L34.6439 34.2252C34.5298 34.3243 34.3823 34.382 34.2012 34.3981C34.0212 34.4113 33.8295 34.3824 33.626 34.3113C33.4225 34.2402 33.2531 34.133 33.1178 33.9897C32.9866 33.8446 32.8872 33.6791 32.8197 33.4934C32.7562 33.3057 32.7265 33.1067 32.7305 32.8963C32.7356 32.683 32.7737 32.4746 32.8448 32.2711C32.92 32.0558 33.0216 31.8646 33.1495 31.6975C33.2784 31.5274 33.428 31.3928 33.5984 31.2934C33.7688 31.1941 33.9579 31.1361 34.1656 31.1193C34.3743 31.0996 34.5982 31.1315 34.8371 31.215C35.0111 31.2758 35.1645 31.3576 35.2974 31.4603C35.4332 31.564 35.5417 31.6797 35.6229 31.8073C35.707 31.936 35.7613 32.0741 35.7858 32.2217C35.8144 32.3673 35.8088 32.5159 35.769 32.6675L35.1497 32.4511C35.1646 32.3802 35.1631 32.3085 35.1454 32.2361C35.1287 32.1608 35.0986 32.0907 35.0551 32.0259C35.0115 31.961 34.9546 31.9014 34.8842 31.847C34.8168 31.7937 34.7419 31.7526 34.6593 31.7237C34.4115 31.6372 34.18 31.6605 33.9647 31.7937C33.7533 31.9251 33.5863 32.1662 33.4637 32.5171C33.4214 32.6381 33.3934 32.7656 33.3796 32.8998C33.3698 33.032 33.3798 33.1596 33.4096 33.2826C33.4435 33.4036 33.5012 33.5131 33.5827 33.6111C33.6643 33.7091 33.7759 33.7829 33.9175 33.8323C34.0177 33.8674 34.1168 33.8821 34.2147 33.8766C34.3155 33.8722 34.4092 33.8503 34.4958 33.811C34.5823 33.7718 34.6571 33.7185 34.7204 33.6513C34.7876 33.5821 34.8371 33.5018 34.8691 33.4104L34.2188 33.1831L34.3904 32.6921L35.6158 33.1203L35.0639 34.6996L34.5551 34.5218Z" fill="#FF6700"/>
<path d="M37.5702 19.4115V20.7236H36.9188V17.6121H39.1353V18.1556H37.5702V18.8632H38.9385V19.4115H37.5702Z" fill="#FF6700"/>
<path d="M39.8059 35.2558V33.8593H38.5922V35.2558H37.9408V32.1442H38.5922V33.3157H39.8059V32.1442H40.4619V35.2558H39.8059Z" fill="#FF6700"/>
<path d="M43.3402 16.7483L43.9611 16.5091L44.7073 18.4463C44.8432 18.7991 44.8424 19.1057 44.705 19.3661C44.5666 19.6237 44.3064 19.826 43.9245 19.9731C43.5717 20.109 43.2593 20.1322 42.9872 20.0429C42.718 19.9524 42.516 19.7322 42.3812 19.3824L41.6216 17.4102L42.2382 17.1727L42.9759 19.0881C43.0456 19.2688 43.1458 19.3942 43.2766 19.4644C43.4074 19.5345 43.5558 19.5376 43.722 19.4736C44.1097 19.3243 44.2312 19.0615 44.0863 18.6855L43.3402 16.7483Z" fill="#FF6700"/>
<path d="M44.5535 34.5411L43.6305 32.1448L42.7559 32.4816L42.5605 31.9744L44.9219 31.0648L45.1173 31.5721L44.2383 31.9106L45.1613 34.307L44.5535 34.5411Z" fill="#FF6700"/>
<path d="M45.8971 19.9781L47.2492 17.1756L47.8358 17.4587L46.7302 19.7505L48.1187 20.4204L47.8724 20.9311L45.8971 19.9781Z" fill="#FF6700"/>
<path d="M49.459 33.3007C49.5141 33.1504 49.5137 33.0184 49.4576 32.9046C49.4015 32.7908 49.2848 32.6912 49.1075 32.6057C48.9415 32.5256 48.8027 32.4933 48.6912 32.5089C48.5796 32.5244 48.498 32.5856 48.4464 32.6926C48.403 32.7826 48.4008 32.87 48.4397 32.9546C48.4814 33.0407 48.5716 33.1414 48.7101 33.2568C48.8515 33.3736 48.9844 33.4863 49.1089 33.5949C49.2376 33.7021 49.3425 33.8047 49.4235 33.9027C49.4718 33.9608 49.5139 34.0209 49.5497 34.0833C49.5855 34.1457 49.6102 34.2131 49.6238 34.2856C49.6374 34.358 49.6378 34.4363 49.625 34.5203C49.6123 34.6043 49.5821 34.6956 49.5346 34.794C49.4599 34.9488 49.3673 35.0689 49.2567 35.1543C49.1503 35.2382 49.0288 35.2923 48.8923 35.3166C48.7585 35.3423 48.6145 35.3387 48.4603 35.306C48.3076 35.2774 48.1497 35.2237 47.9865 35.145C47.812 35.0608 47.6626 34.9644 47.5381 34.8558C47.4122 34.75 47.3162 34.6326 47.2501 34.5036C47.184 34.3746 47.1493 34.2381 47.1459 34.0942C47.1438 33.9476 47.1793 33.7948 47.2525 33.6358L47.8181 33.9087C47.7545 34.0549 47.7572 34.1967 47.8262 34.334C47.8994 34.4699 48.0303 34.5834 48.2188 34.6743C48.3932 34.7585 48.5432 34.7892 48.6686 34.7665C48.7982 34.7423 48.8935 34.6669 48.9546 34.5402C48.975 34.498 48.9863 34.4567 48.9885 34.4161C48.9935 34.3769 48.986 34.3351 48.9658 34.2907C48.9498 34.2448 48.919 34.197 48.8736 34.1474C48.8296 34.0949 48.7687 34.0378 48.691 33.976C48.5355 33.8524 48.4041 33.7474 48.2967 33.6609C48.1934 33.5729 48.1034 33.4827 48.0267 33.3901C47.9073 33.2493 47.8326 33.1057 47.8026 32.9595C47.7767 32.8117 47.8066 32.6492 47.8921 32.4719C47.9532 32.3453 48.03 32.2401 48.1224 32.1564C48.2162 32.0698 48.3236 32.0089 48.4447 31.9737C48.5685 31.9398 48.704 31.9323 48.851 31.9512C49.0007 31.9714 49.1615 32.0229 49.3331 32.1057C49.5104 32.1913 49.6571 32.2898 49.7732 32.4013C49.8894 32.5129 49.9742 32.6318 50.0277 32.7582C50.084 32.886 50.1103 33.0183 50.1067 33.1553C50.1058 33.2937 50.0756 33.4317 50.0161 33.5695L49.459 33.3007Z" fill="#FF6700"/>
</svg>
