<svg width="40" height="40" viewBox="0 0 40 40" fill="none" xmlns="http://www.w3.org/2000/svg">
<path d="M16.6663 30C19.6246 29.9994 22.4977 29.0091 24.828 27.1867L32.1547 34.5133L34.5113 32.1567L27.1847 24.83C29.008 22.4994 29.999 19.6257 29.9997 16.6667C29.9997 9.315 24.018 3.33333 16.6663 3.33333C9.31468 3.33333 3.33301 9.315 3.33301 16.6667C3.33301 24.0183 9.31468 30 16.6663 30ZM16.6663 6.66667C22.1813 6.66667 26.6663 11.1517 26.6663 16.6667C26.6663 22.1817 22.1813 26.6667 16.6663 26.6667C11.1513 26.6667 6.66634 22.1817 6.66634 16.6667C6.66634 11.1517 11.1513 6.66667 16.6663 6.66667Z" fill="black"/>
<path d="M19.0194 14.31C19.6511 14.9433 19.9994 15.78 19.9994 16.6667H23.3327C23.3342 15.7907 23.162 14.9232 22.8262 14.1141C22.4903 13.3051 21.9975 12.5707 21.3761 11.9533C18.8527 9.43333 14.4777 9.43333 11.9561 11.9533L14.3094 14.3133C15.5761 13.05 17.7594 13.0533 19.0194 14.31Z" fill="black"/>
</svg>
